Coordinates
version=1
nRows=13
nColumns=30
inDegrees=yes

Units are S.I. units (second, meters, Newtons, ...)
Angles are in degrees.

endheader
time	floatyaw	floatroll	floatpitch	floatx	floaty	floatz	pro_sup_l	deviation_l	flexion_l	cmc_flexion_l	cmc_abduction_l	mp_flexion_l	ip_flexion_l	2mcp_flexion_l	2mcp_abduction_l	2pm_flexion_l	2md_flexion_l	3mcp_flexion_l	3mcp_abduction_l	3pm_flexion_l	3md_flexion_l	4mcp_flexion_l	4mcp_abduction_l	4pm_flexion_l	4md_flexion_l	5mcp_flexion_l	5mcp_abduction_l	5pm_flexion_l	5md_flexion_l
0.005000	-160.147433	-5.066637	-73.570646	-0.061064	-0.128599	-0.125541	14.973943	-25.730188	-2.734947	16.194621	-16.788093	-26.332650	-49.034085	44.116319	14.920567	52.086175	46.234322	48.952257	5.804239	58.376583	41.049193	36.048264	-6.449217	66.513380	53.843207	-3.917745	-11.955077	77.228438	60.458421
0.015000	-160.147433	-5.066637	-73.570646	-0.060671	-0.124969	-0.126276	12.847151	-25.925917	-3.483170	15.378952	-17.224516	-26.226487	-48.933614	46.013415	15.468402	51.122721	47.912393	51.330483	6.027418	59.633522	43.120830	37.193237	-6.556535	68.785355	57.035764	-4.384515	-12.398730	77.315704	62.270273
0.025000	-160.147433	-5.066637	-73.570646	-0.059782	-0.121622	-0.126274	11.535536	-25.442798	-3.624493	14.634972	-17.414141	-25.979623	-48.371794	46.244701	15.561438	49.627076	48.879356	51.985472	6.157992	59.989094	44.728696	37.221981	-6.563163	69.668535	59.143556	-4.638767	-12.659414	76.487746	63.193780
0.035000	-160.147433	-5.066637	-73.570646	-0.058776	-0.118767	-0.125874	10.879245	-24.660565	-3.240498	13.933020	-17.427584	-25.786778	-47.677187	45.304137	15.399603	48.136361	49.382833	51.428779	6.233326	59.769716	45.923425	36.491041	-6.524979	69.594462	60.300987	-4.850017	-12.804858	75.277412	63.523464
0.045000	-160.147433	-5.066637	-73.570646	-0.057918	-0.116574	-0.125377	10.648453	-23.917342	-2.575589	13.278366	-17.312937	-25.778393	-47.161985	43.862732	15.181991	47.077187	49.671341	50.340082	6.287658	59.345894	46.802225	35.448656	-6.491194	69.122010	60.791759	-5.130675	-12.894767	74.158748	63.572640
0.055000	-160.147433	-5.066637	-73.570646	-0.057317	-0.115135	-0.124970	10.619335	-23.403684	-1.891580	12.715275	-17.128497	-25.922337	-46.937866	42.488458	15.034558	46.596830	49.875644	49.278095	6.341002	58.978359	47.447280	34.452091	-6.488567	68.688006	60.903977	-5.513277	-12.956464	73.412074	63.553050
0.065000	-160.147433	-5.066637	-73.570646	-0.056955	-0.114438	-0.124715	10.634642	-23.138400	-1.364145	12.291764	-16.950320	-26.066517	-46.902339	41.487528	14.989564	46.568426	50.001078	48.527599	6.398099	58.761012	47.905895	33.682194	-6.519068	68.485156	60.845930	-5.958873	-12.989004	73.091716	63.542250
0.075000	-160.147433	-5.066637	-73.570646	-0.056744	-0.114346	-0.124590	10.623455	-23.024876	-1.053070	12.019295	-16.843891	-26.067059	-46.866642	40.897520	15.012322	46.735252	50.002541	48.111953	6.454121	58.659963	48.205868	33.160622	-6.568434	68.489329	60.733962	-6.390662	-12.983978	73.084778	63.525859
0.085000	-160.147433	-5.066637	-73.570646	-0.056592	-0.114636	-0.124542	10.581429	-22.942166	-0.927768	11.861431	-16.829784	-25.888840	-46.702552	40.587979	15.047959	46.878251	49.865731	47.908977	6.501794	58.595824	48.379107	32.822137	-6.618475	68.573416	60.622696	-6.737932	-12.943412	73.215074	63.467125
0.095000	-160.147433	-5.066637	-73.570646	-0.056447	-0.115066	-0.124526	10.533758	-22.815737	-0.914170	11.756669	-16.877343	-25.611862	-46.407979	40.390309	15.058810	46.906027	49.637408	47.778456	6.536237	58.511091	48.471194	32.587064	-6.656387	68.620864	60.539436	-6.968157	-12.883589	73.336491	63.356961
0.105000	-160.147433	-5.066637	-73.570646	-0.056300	-0.115444	-0.124514	10.504847	-22.638050	-0.937334	11.653229	-16.931874	-25.361033	-46.074656	40.190305	15.037394	46.843582	49.399400	47.638014	6.556662	58.393885	48.531622	32.402498	-6.678002	68.583397	60.500024	-7.092207	-12.826813	73.378504	63.222740
0.115000	-160.147433	-5.066637	-73.570646	-0.056170	-0.115673	-0.124494	10.505427	-22.445309	-0.947142	11.530377	-16.952649	-25.223357	-45.807036	39.956001	14.997795	46.763708	49.219200	47.474096	6.565796	58.264169	48.594330	32.248969	-6.685925	68.477757	60.505825	-7.146154	-12.790176	73.340523	63.104150
0.125000	-160.147433	-5.066637	-73.570646	-0.056073	-0.115754	-0.124466	10.533816	-22.278619	-0.924853	11.397118	-16.934735	-25.206675	-45.655412	39.713539	14.958635	46.721906	49.115534	47.311764	6.568233	58.146984	48.664230	32.126459	-6.685503	68.350117	60.536890	-7.166706	-12.779055	73.258113	63.022456
